<?xml version="1.0" encoding="utf-8"?>
<!-- Generator: Adobe Illustrator 25.4.1, SVG Export Plug-In . SVG Version: 6.00 Build 0)  -->
<svg version="1.1" id="Livello_1" xmlns="http://www.w3.org/2000/svg" xmlns:xlink="http://www.w3.org/1999/xlink" x="0px" y="0px"
	 viewBox="0 0 122 32" style="enable-background:new 0 0 122 32;" xml:space="preserve">
<style type="text/css">
	.st0{fill:#4A4AFD;}
	.st1{font-family:'Comfortaa-Light';}
	.st2{font-size:4.2596px;}
	.st3{font-family:'Raleway-Bold';}
	.st4{font-size:8.3379px;}
	.st5{letter-spacing:1;}
</style>
<desc>Created with Sketch.</desc>
<path class="st0" d="M8.3,27.1c-0.9,2.2,1.9,4.8,4.3,4.8c1.5,0,2.8-0.8,3.6-1.9c0.2-0.2,17.2-21.1,17.3-21.4c0.8-0.8,1.2-1.8,1.2-3
	c0-2.4-1.9-4.3-4.3-4.3c-1.5,0-2.8,0.8-3.6,1.9C26.7,3.4,9.7,24.3,9.6,24.6"/>
<path d="M43.3,18.5c0.8-0.8,1.2-1.8,1.2-3c0-2.4-1.9-4.3-4.3-4.3c-1.5,0-2.8,0.8-3.6,1.9c-0.2,0.2-9.1,11.2-9.3,11.4
	c-0.8,0.8-1.2,1.8-1.2,3c0,2.4,1.9,4.3,4.3,4.3c1.5,0,2.8-0.8,3.6-1.9C34.2,29.7,43.2,18.7,43.3,18.5z"/>
<g>
	<ellipse transform="matrix(0.2282 -0.9736 0.9736 0.2282 31.9331 51.3472)" class="st0" cx="48.4" cy="5.5" rx="4.3" ry="4.3"/>
</g>
<path d="M8.3,5.5c0-2.4,1.9-4.3,4.3-4.3c2.4,0,4.3,1.9,4.3,4.3c0,2.4-1.9,4.3-4.3,4.3C10.2,9.8,8.3,7.9,8.3,5.5"/>
<g>
	<text transform="matrix(1.0594 0 0 1 77.7656 26.6768)" class="st1 st2">est. 2021</text>
</g>
<text transform="matrix(1 0 0 1 64.1719 19.1875)" class="st3 st4 st5">DIGITIZE</text>
</svg>
